<?xml version="1.0" standalone="no"?>
<!DOCTYPE svg PUBLIC "-//W3C//DTD SVG 20010904//EN"
 "http://www.w3.org/TR/2001/REC-SVG-20010904/DTD/svg10.dtd">
<svg version="1.0" xmlns="http://www.w3.org/2000/svg"
 width="512.000000pt" height="512.000000pt" viewBox="0 0 512.000000 512.000000"
 preserveAspectRatio="xMidYMid meet">
<metadata>
Created by potrace 1.11, written by Peter Selinger 2001-2013
</metadata>
<g transform="translate(0.000000,512.000000) scale(0.100000,-0.100000)"
fill="#000000" stroke="none">
<path d="M2356 5109 c-583 -45 -1165 -312 -1586 -729 -430 -425 -696 -985
-751 -1583 -14 -158 -7 -471 16 -617 174 -1147 1086 -2031 2234 -2165 162 -19
441 -19 603 0 630 73 1225 389 1632 866 312 364 496 751 588 1234 21 109 23
148 23 440 0 352 -4 392 -70 651 -244 958 -1063 1711 -2037 1873 -229 38 -425
47 -652 30z m-691 -1049 c234 -40 372 -116 429 -233 41 -84 51 -196 39 -408
-5 -101 -9 -185 -8 -187 2 -2 24 28 51 65 136 194 291 356 371 390 18 7 74 18
125 23 51 5 131 17 178 25 420 75 651 53 780 -76 58 -58 86 -127 99 -242 12
-104 2 -194 -55 -502 -24 -132 -48 -292 -54 -355 -29 -360 -31 -398 -20 -551
23 -324 61 -479 116 -479 6 0 47 39 90 86 167 183 179 194 211 194 64 0 86
-71 53 -171 -44 -132 -231 -440 -326 -534 -78 -79 -97 -82 -290 -55 -301 42
-378 66 -493 154 -128 99 -158 163 -173 371 -5 77 -8 291 -5 475 5 320 6 343
36 510 44 249 41 397 -10 517 -38 90 -97 81 -219 -34 -45 -42 -116 -122 -158
-178 -42 -56 -98 -126 -123 -156 -64 -74 -137 -195 -226 -378 l-76 -153 6
-187 c8 -210 35 -418 73 -548 29 -101 84 -231 119 -284 l24 -36 -127 -16
c-186 -24 -272 -27 -433 -17 -338 22 -416 93 -465 422 -21 146 -15 626 15
1033 32 460 47 940 33 1092 -19 194 -48 288 -109 344 -15 15 -38 30 -51 34
-28 8 -49 43 -30 50 7 2 58 9 113 14 134 13 354 4 490 -19z"/>
</g>
</svg>
