<svg xmlns="http://www.w3.org/2000/svg" viewBox="0 0 43.16 43.16"><defs><style>.cls-1{fill:#f1f2f2;}</style></defs><title>Asset 7</title><g id="Layer_2" data-name="Layer 2"><g id="Layer_3" data-name="Layer 3"><path class="cls-1" d="M18.42,18.27c0-1.69-1.15-1.69-1.15-1.69H12.54v3.63H17C17.75,20.21,18.42,20,18.42,18.27Z"/><path class="cls-1" d="M29.38,20.21a2.9,2.9,0,0,0-2.85,2.5h5.33A2.41,2.41,0,0,0,29.38,20.21Z"/><path class="cls-1" d="M17.27,22.71H12.54v4.35H17c.68,0,1.95-.21,1.95-2.11C19,22.69,17.27,22.71,17.27,22.71Z"/><path class="cls-1" d="M21.58,0A21.58,21.58,0,1,0,43.16,21.58,21.58,21.58,0,0,0,21.58,0Zm4.24,14.65h6.71v2H25.82Zm-3.38,10.5c0,5-5.17,4.8-5.17,4.8H8.81V13.69h8.46c2.57,0,4.6,1.43,4.6,4.33a2.82,2.82,0,0,1-2.48,3.09C22.66,21.11,22.44,25.15,22.44,25.15ZM35,24.89H26.56a2.64,2.64,0,0,0,2.85,2.82C32.12,27.71,32,26,32,26h2.85c0,4.64-5.56,4.33-5.56,4.33a5.77,5.77,0,0,1-6.24-6.22s0-6.24,6.24-6.24C35.9,17.83,35,24.89,35,24.89Z"/></g></g></svg>