<svg id="Layer_1" data-name="Layer 1" xmlns="http://www.w3.org/2000/svg" viewBox="0 0 383.11 384"><defs><style>.cls-1{fill:#fff;}</style></defs><path class="cls-1" d="M0,201.75v-19.5c.26-1.46.61-2.91.77-4.38.63-5.46,1-11,1.84-16.37,6-36.65,21.16-69.07,45.91-96.75C79.44,30.17,117.89,9.24,163.8,2.3c6-.91,12.06-1.54,18.09-2.3h19.47c1.45.26,2.89.6,4.35.78,7,.89,14.16,1.32,21.11,2.67,44.56,8.65,82,30,111,65C377.21,115.9,390.9,170.55,378.92,231c-9.27,46.8-33.85,84.65-71.58,113.7a184.34,184.34,0,0,1-88.24,37c-6.15.86-12.33,1.52-18.49,2.27h-18c-1.58-.26-3.16-.55-4.76-.77-8.5-1.18-17.12-1.81-25.5-3.58C109.16,370.49,73.26,348.8,44.84,315A186.63,186.63,0,0,1,2.29,219.89C1.42,213.86.76,207.8,0,201.75Zm191.62,95.31h99.54c14.42,0,22.39-8,22.39-22.57q0-82.5,0-165c0-14.57-7.94-22.57-22.38-22.57H92.08c-14.46,0-22.38,8-22.38,22.56q0,82.49,0,165c0,14.7,8,22.58,22.75,22.58Z"/><path class="cls-1" d="M85.43,220.18V169.74q0-30.36,0-60.74c0-5.37.89-6.25,6.34-6.25H291.6c5,0,6.2,1,6.21,5.25q0,54.93,0,109.86c0,.47-.08.94-.19,2.15-1.38-1.67-2.38-2.86-3.36-4.08q-23.19-28.69-46.37-57.4c-5.24-6.48-9.94-6.5-15.18,0q-27.81,34.37-55.56,68.76c-.46.58-.95,1.15-1.7,2-.93-1.08-1.81-2-2.62-3q-19.18-23.75-38.36-47.5c-5.43-6.71-10-6.73-15.44,0q-15.21,18.78-30.37,37.59C87.82,217.38,86.93,218.4,85.43,220.18Zm121.41-73.05a27.72,27.72,0,1,0-55.44-.46A28,28,0,0,0,179,174.83,27.68,27.68,0,0,0,206.84,147.13Z"/></svg>