<svg xmlns="http://www.w3.org/2000/svg" viewBox="0 0 44.21 43.12"><defs><style>.cls-1{fill:#f1f2f2;}</style></defs><title>Asset 5</title><g id="Layer_2" data-name="Layer 2"><g id="Layer_3" data-name="Layer 3"><path class="cls-1" d="M41.24,11a22.09,22.09,0,0,0-8-8A21.71,21.71,0,0,0,22.1,0,21.64,21.64,0,0,0,11,3,22,22,0,0,0,3,11,21.64,21.64,0,0,0,0,22.1a21.51,21.51,0,0,0,4.22,13,21.69,21.69,0,0,0,10.89,8,1.27,1.27,0,0,0,1.15-.2,1.12,1.12,0,0,0,.37-.86c0-.06,0-.58,0-1.56s0-1.83,0-2.56l-.66.12a9,9,0,0,1-1.59.1,12.78,12.78,0,0,1-2-.2,4.5,4.5,0,0,1-1.93-.87,3.62,3.62,0,0,1-1.27-1.77l-.29-.66A7.28,7.28,0,0,0,8,33.15a3.59,3.59,0,0,0-1.25-1.09l-.21-.14a2.44,2.44,0,0,1-.37-.35,1.51,1.51,0,0,1-.26-.4A.24.24,0,0,1,6,30.84a1.87,1.87,0,0,1,.84-.13l.57.08a4.33,4.33,0,0,1,1.43.69A4.65,4.65,0,0,1,10.24,33a5.15,5.15,0,0,0,1.6,1.8,3.43,3.43,0,0,0,1.89.62,7.84,7.84,0,0,0,1.64-.15,5.43,5.43,0,0,0,1.29-.43,4.74,4.74,0,0,1,1.41-3,20.64,20.64,0,0,1-3-.52,11.66,11.66,0,0,1-2.7-1.12,7.72,7.72,0,0,1-2.32-1.93,9.37,9.37,0,0,1-1.51-3A14.51,14.51,0,0,1,8,21,8.42,8.42,0,0,1,10.27,15a7.71,7.71,0,0,1,.21-5.87A4.06,4.06,0,0,1,13,9.54a16.88,16.88,0,0,1,2.4,1.11c.51.3.92.56,1.23.77a21,21,0,0,1,11.05,0l1.09-.69a15.24,15.24,0,0,1,2.65-1.26,3.75,3.75,0,0,1,2.33-.32A7.68,7.68,0,0,1,33.93,15,8.38,8.38,0,0,1,36.2,21a14.31,14.31,0,0,1-.59,4.33,8.89,8.89,0,0,1-1.52,3,8,8,0,0,1-2.33,1.92,11.54,11.54,0,0,1-2.71,1.12,20.15,20.15,0,0,1-2.95.52,5.1,5.1,0,0,1,1.5,4.08V42a1.15,1.15,0,0,0,.36.86,1.24,1.24,0,0,0,1.14.2,21.65,21.65,0,0,0,10.89-8,21.46,21.46,0,0,0,4.22-13A21.65,21.65,0,0,0,41.24,11Z"/></g></g></svg>