<?xml version="1.0" encoding="utf-8"?>
<!-- Generator: Adobe Illustrator 25.0.1, SVG Export Plug-In . SVG Version: 6.00 Build 0)  -->
<svg version="1.1" xmlns="http://www.w3.org/2000/svg" xmlns:xlink="http://www.w3.org/1999/xlink" x="0px" y="0px"
	 viewBox="0 0 800 800" style="enable-background:new 0 0 800 800;" xml:space="preserve">
<style type="text/css">
	.st0{fill:#FFFFFF;}
</style>
<g id="Layer_2">
</g>
<g id="Layer_1">
	<g>
		<path class="st0" d="M506.7,400c0,58.3-48.3,106.7-106.7,106.7c-58.4,0-106.7-48.4-106.7-106.7c0-13.3,3.3-28.3,8.3-40h-58.3v160
			c0,20,16.7,36.7,36.7,36.7h240c20,0,36.7-16.7,36.7-36.7V360h-58.3C503.4,371.7,506.7,386.7,506.7,400z"/>
		<polygon class="st0" points="550,250 541.7,250 483.3,250 483.3,316.7 550,316.7 		"/>
		<path class="st0" d="M400,468.3c36.6,0,68.3-30,68.3-68.3c0-15-5-28.3-13.3-40c-11.7-16.6-33.3-28.3-55-28.3s-43.3,11.6-55,28.3
			c-8.3,11.7-13.3,25-13.3,40C331.7,438.3,363.3,468.3,400,468.3z"/>
		<path class="st0" d="M400,0C179.1,0,0,179.1,0,400s179.1,400,400,400s400-179.1,400-400S620.9,0,400,0z M595,520
			c0,41.7-33.3,75-75,75H280c-41.7,0-75-33.3-75-75V280c0-41.7,33.3-75,75-75h240c41.7,0,75,33.3,75,75V520z"/>
	</g>
</g>
</svg>
