<?xml version="1.0" encoding="utf-8"?>
<!-- Generator: Adobe Illustrator 23.0.2, SVG Export Plug-In . SVG Version: 6.00 Build 0)  -->
<svg version="1.1" xmlns="http://www.w3.org/2000/svg" xmlns:xlink="http://www.w3.org/1999/xlink" x="0px" y="0px"
	 viewBox="0 0 160 160" style="enable-background:new 0 0 160 160;" xml:space="preserve">
<style type="text/css">
	.st0{fill:#2D1212;}
	.st1{fill:#FFFFFF;}
</style>
<g id="Layer_2">
	<circle class="st0" cx="80" cy="80" r="80"/>
</g>
<g id="Layer_1">
	<title>Asset 1</title>
</g>
<g id="Layer_3">
	<path class="st1" d="M112,126.1c0,0,3-2.2,2.5-7.9s-3.9-3.6-5.2-10.8"/>
	<path class="st1" d="M120.4,120.7c2.5-4,6.6-10.9,6.9-13.7c0.4-4-2.3-5.4-5.7-0.9c0,0,0,0,0,0c-1.4,1.9-2.9,3.7-4.7,5.3
		c-0.5,0.6-1,0.8-1.5,0.6c-1-0.5-1.8-2.7-2.4-6.5c-0.7-4.8-1-9.6-1.1-14.4c0.4-3.1,0.6-5.9,0.7-8.5c0.1-2.8,0.4-5.6,0.9-8.4
		c1-5.1,1.9-9.8,2.5-13.9c0.6-3.5,0.5-7.2-0.4-10.7c-0.7-2.2-2.2-4.2-4.2-5.4c-2.1-1.2-4.5-1.9-6.9-2.1c-2.7-0.3-5.4-0.2-8.1,0.1
		c-2.8,0.3-5.4,0.7-7.9,1.2C86,43.8,84,44,82.6,44.2h-1.1l-0.8,0.2c-3.2,0.4-8.1,5.4-14.8,15.2c0.4-4.1,0.5-7.6,0.6-10.6
		c0.1-2.5-0.2-4.9-0.8-7.3c-0.7-2.3-2.3-4.2-4.4-5.4c-2.5-1.5-5.3-2.5-8.2-3c-3-0.6-6.1-0.9-9.2-1c-2.6-0.1-5.2,0-7.8,0.3
		c-2.2,0.3-3.4,0.4-3.5,0.4l0.6,1.4c0.8,0,1.7,0.4,2.2,1c2.7,2.3,3.9,8.8,3.7,19.6c-0.1,2.6-0.2,5.1-0.3,7.5
		c-0.1,2.2-0.1,4.4-0.2,6.7c-0.1,2.2-0.2,4.2-0.3,5.9l-0.2,2.9c-0.4,5.4-0.7,10.6-1,15.7s-0.3,9.7-0.2,13.8
		c0.1,3.6,0.6,7.1,1.5,10.6c0.8,2.9,2.1,4.8,4,5.9c2.2,1.1,4.7,1.8,7.1,1.9c2.8,0.3,5.6,0.3,8.5,0.3c2.4,0,4.8-0.2,7.1-0.6
		c2-0.3,3.1-0.5,3.4-0.5l0.8-0.2l-0.6-0.6c-2.4-4.2-4.1-8.8-4.9-13.6c-1.1-6.2-1.5-12.6-1.2-18.9c0.3-0.9,0.7-1.8,1.2-2.6
		c0.7-1.5,1.5-3.1,2.5-5s2-3.8,3.2-5.7c1.1-1.7,2.4-3.4,3.8-4.8c0.8-1.2,1.7-2.4,2.8-3.8c1.1-1.4,2.2-2.7,3.3-3.9
		c1-1.1,2.2-2.1,3.4-3c0.8-0.7,1.8-1,2.8-1c0.5,0.1,1,0.4,1.3,0.8c0.8,1.4,1.3,2.9,1.6,4.5c0.4,2.7,0.5,5.5,0.2,8.3
		c-0.9,4.6-1.6,9.2-2.1,13.8v0.1c0,0.4,0,0.9,0,1.3c0,0.7,0,1.3,0,2c0.1,4.5,0.1,8.1,0.1,10.9c0,3.5,0.1,6.2,0.2,8.3
		c0,1.7,0.3,3.4,0.9,5c0.4,1.3,1.1,2.4,2.1,3.4c1.3,1.2,2.7,2.4,4.1,3.4c2.4,1.4,5.1,2.4,7.9,2.7c3.3,0.5,6.1,0.9,8.5,1.2
		c0.6,0.2,1.2,0.3,1.8,0.4c0.4,0,0.8,0,1.2-0.2c0.9-0.2,1.8-0.8,2.9-1.8c0.9-0.9,1.9-2,2.9-3.5C119.7,121.7,120.1,121.2,120.4,120.7
		z"/>
</g>
</svg>
