<svg xmlns="http://www.w3.org/2000/svg" viewBox="0 0 448.1 172.08"><defs><style>.cls-1,.cls-2{fill:#fff;}.cls-2{font-size:21px;font-family:Solomon-Book, Solomon Book;letter-spacing:0.35em;}.cls-3{letter-spacing:0.33em;}.cls-4{letter-spacing:0.32em;}.cls-5{letter-spacing:0.32em;}.cls-6{letter-spacing:0.35em;}.cls-7{letter-spacing:0.36em;}.cls-8{letter-spacing:0.34em;}</style></defs><title>Asset 1</title><g id="Layer_2" data-name="Layer 2"><g id="Layer_3" data-name="Layer 3"><path class="cls-1" d="M151.65,83.73a5.05,5.05,0,0,1,1.06,1.06,4.26,4.26,0,0,1,.76,1.44c.11.38-.37,1.76-1.45,4.13s-2.48,5.25-4.18,8.64-3.67,7-5.88,10.86-4.36,7.46-6.42,10.86-4,6.27-5.68,8.64-3.06,3.69-4,3.94c-.14,0-.2,0-.19.1s0,.09-.18.09l-.8.2c0,.13,0,.19-.16.19h-.65a3.86,3.86,0,0,1-1.23.19,4.16,4.16,0,0,0-1.23.19c-1.4.13-2.93.26-4.61.39s-3.53.19-5.53.19a52,52,0,0,1-7.13-.48,16,16,0,0,1-5.82-1.83q-2.82-1.53-4.15-6a45.21,45.21,0,0,1-1.61-10.76,138.85,138.85,0,0,1,.17-14.13q.46-7.77,1-15.85L94,82.77A22.71,22.71,0,0,1,96.73,73a26.22,26.22,0,0,1,6.4-7.69c.25-.12.36-.22.34-.29s0-.16.13-.28,0-.2.16-.2a6.43,6.43,0,0,0-2.7-.77c-1.59-.25-3.33-.44-5.23-.57H95V62.4Q95.05,45.5,91.22,42a4.59,4.59,0,0,0-2.5-1.15l-.4-1.35c.14,0,1.33-.09,3.56-.28a74.82,74.82,0,0,1,17.4.67A21,21,0,0,1,117.73,43a9.55,9.55,0,0,1,4.4,5.38c.89,3,1.12,6.86.72,11.72s-1,10.19-1.67,16q-.81,5.19-1.42,10.67t-.88,11a93.59,93.59,0,0,0,.59,14.51q.78,5.86,2.52,6.63a1.2,1.2,0,0,0,1,0,6.34,6.34,0,0,0,2.17-1.73,41,41,0,0,0,3.51-4.42c1.46-2,3.07-4.32,4.83-6.82s3.56-5.09,5.41-7.78,3.54-5.16,5.09-7.4,2.82-4.1,3.81-5.57a10.48,10.48,0,0,0,1.43-2.4l.31-.39.76.39ZM88.18,3.22a3.71,3.71,0,0,0-2.4-1.54L81.08.34l4.46-.2,3.3-.09q3.09-.11,7,0t7.74.38a21,21,0,0,1,5.8,1.06q10.27,3.45,11.09,11.91c.18,1.54.38,3.17.61,4.9s.38,3.3.45,4.71.19,3.14.37,5.19l.23.77-1.13-.2q-7.08-2.1-11.67-3.07a64.61,64.61,0,0,0-9.4-1.25,17,17,0,0,0-7.48.86L91,26.08l.18-1.53q.39-5.19.31-8.65a37,37,0,0,0-.81-7A13.12,13.12,0,0,0,88.18,3.22Z"/><path class="cls-1" d="M210.63,16.7A11.45,11.45,0,0,1,212.41,20a26.77,26.77,0,0,1,1.34,5.06,18.12,18.12,0,0,1,.13,5.29,5.22,5.22,0,0,1-2.14,3.86c-1.17,1-3,1.51-5.56,1.6a45.42,45.42,0,0,1-7.75-.42,97.69,97.69,0,0,1-9.78-1.75c.57,0,1-.44,1.36-1.39a12.67,12.67,0,0,0,.6-3.63,30,30,0,0,0-.22-4.81,46.07,46.07,0,0,0-.94-5.14,3.36,3.36,0,0,0-.5-1.18c1.09-.72,2.09-1.41,3-2.08s1.7-1.31,2.4-1.92,1.61-1.22,2.31-1.83L184,16.56q-4.64,1.94-8.23,3.7c-2.41,1.19-3.27,2-2.6,2.4-1.34,1.48-2.67,3-4,4.54s-2.63,3.13-3.94,4.75a40.87,40.87,0,0,0-7,13.46,77.1,77.1,0,0,0-3,15.74A91.19,91.19,0,0,0,155.3,78a118.13,118.13,0,0,0,2.88,17,60.26,60.26,0,0,0,5.55,15.71q3.48,6.41,7.65,8.68a10.81,10.81,0,0,0,5.08,1.66,6.32,6.32,0,0,0,3.67-1.1,11.79,11.79,0,0,0,2.86-3.06q1.32-2,2.69-4.21a6.5,6.5,0,0,0,1.17-3.9,6,6,0,0,0-.86-2.63,7.92,7.92,0,0,0-2.41-2q8.08-.81,12.7.24a20,20,0,0,1,6.93,2.69,9.44,9.44,0,0,1,3.72,4.77,33.11,33.11,0,0,1-5.73,13A27.57,27.57,0,0,1,191.11,133q-6.62,3.38-17.8,2a33.25,33.25,0,0,1-13.56-4.59,51.3,51.3,0,0,1-11-9,61.55,61.55,0,0,1-8.48-11.6,92.18,92.18,0,0,1-5.92-12.46,72.85,72.85,0,0,1-3.43-11.4,32,32,0,0,1-.81-8.49,217.11,217.11,0,0,1,3.69-30.92,98.21,98.21,0,0,1,7.66-23.82A44.15,44.15,0,0,1,153.53,7a30.78,30.78,0,0,1,17-6.41,48,48,0,0,1,17.12,1.76A51,51,0,0,1,200.21,8,45.88,45.88,0,0,1,210.63,16.7Z"/><path class="cls-1" d="M438,104.1q6.36,1.14,8.32,5.18a17.54,17.54,0,0,1,1.79,8.46,33.93,33.93,0,0,1-2.63,11.34,16.49,16.49,0,0,0-8.64-4.81,36.79,36.79,0,0,0-11.05-.67,80.37,80.37,0,0,0-12.29,2q-6.42,1.53-12.59,3.17T389.15,132a45.25,45.25,0,0,1-9.58,1.73,80.38,80.38,0,0,1-10.83,1.15,73.07,73.07,0,0,1-9.09-.19,17.33,17.33,0,0,1-7.51-2.12q-2.61-1.53-3.76-6.82a69,69,0,0,1-1.29-13.26q-.13-8,.45-17.87t1.39-20.46q.81-10.56,1.61-21.14t1.27-19.79a49.87,49.87,0,0,0,5-3.26q2.65-1.92,4.71-3.65l4.81-4-14.3,2.5a88.92,88.92,0,0,0-1.58-17.1Q349.07,1.1,345.15.91a84.84,84.84,0,0,1,16-.38,42.84,42.84,0,0,1,11.79,2.4q5.65,2,7,6.63a30.64,30.64,0,0,1,.65,9.7c-.22,4.3-.61,9.32-1.17,15.09s-1.28,12-2.13,18.73-1.59,13.58-2.22,20.56S374,87.47,373.65,94.2a123.46,123.46,0,0,0,.34,18.73q7.51-.77,16.64-2.59t17.95-3.55q8.84-1.74,16.61-2.69A42.36,42.36,0,0,1,438,104.1Z"/><path class="cls-1" d="M282.08,86.94c-2.2,1.81-4.69,3.94-7.51,6.4L273,94.68a59.14,59.14,0,0,0-1.91-16.43,161.12,161.12,0,0,0-4.64-15.47,18.39,18.39,0,0,0-3.63-5.28A33.31,33.31,0,0,0,257.32,53a54.7,54.7,0,0,0-12.43-6.34,88.39,88.39,0,0,0-10.6-3c-14.7-3.59-24.83,9-25.68,10.13-.27.41-.53.83-.77,1.28a33,33,0,0,0-1.67,3.75,34.18,34.18,0,0,0-1.47,4.42,68.33,68.33,0,0,0-3.83,11.24,77.1,77.1,0,0,0-2,12.2,65.25,65.25,0,0,0,.08,12.11,41.12,41.12,0,0,0,2.48,10.76c1.05,2.56,2.09,4.93,3.09,7.11a39.86,39.86,0,0,0,3.4,6,28.59,28.59,0,0,0,9.66,10,25.38,25.38,0,0,0,13,4H231a35.59,35.59,0,0,0,24.91-9.42,14.85,14.85,0,0,0,3.56-4.61q2.2-2.69,5.93-6.72t8.22-8.46c3.48-3.58,6.57-6.8,9.3-9.7ZM227,114.87a15.09,15.09,0,0,1-3.08-2.83l-.26-.31-.15-.19a19.82,19.82,0,0,1-1.23-1.69v0a32.06,32.06,0,0,1-3.21-6.39,40.15,40.15,0,0,1-2.2-9.51,39.12,39.12,0,0,1,.32-10.76,64.6,64.6,0,0,1,1.32-6.72c.1-.42.21-.82.33-1.21h0l0-.1a32.83,32.83,0,0,1,1.1-3.27c1.94-5.25,6.2-14.51,11.37-11.75A43.17,43.17,0,0,1,235.91,64a22.71,22.71,0,0,1,4.83,7.5,42.22,42.22,0,0,1,2.83,12.68q.72,7.79-1.45,19.89a16.73,16.73,0,0,0,.91,8.07,68.09,68.09,0,0,0,2.6,6.53S235,120.72,227,114.87Z"/><path class="cls-1" d="M356.54,86.94c-2.2,1.81-4.69,3.94-7.51,6.4l-1.53,1.34a59.17,59.17,0,0,0-1.92-16.43,155.59,155.59,0,0,0-4.64-15.47,18.35,18.35,0,0,0-3.62-5.28A33,33,0,0,0,331.77,53a54.49,54.49,0,0,0-12.43-6.34,87.85,87.85,0,0,0-10.6-3c-14.69-3.59-24.83,9-25.68,10.13A13.49,13.49,0,0,0,282.3,55a31.29,31.29,0,0,0-1.67,3.75,34.18,34.18,0,0,0-1.47,4.42,67.41,67.41,0,0,0-3.83,11.24,74.88,74.88,0,0,0-2,12.2,65.25,65.25,0,0,0,.08,12.11,41.12,41.12,0,0,0,2.47,10.76q1.59,3.84,3.1,7.11a39,39,0,0,0,3.4,6,28.51,28.51,0,0,0,9.66,10,25.38,25.38,0,0,0,13,4h.43a35.56,35.56,0,0,0,24.9-9.42,14.56,14.56,0,0,0,3.56-4.61q2.2-2.69,5.94-6.72t8.21-8.46c3.49-3.58,6.58-6.8,9.3-9.7Zm-55.12,27.93a14.84,14.84,0,0,1-3.08-2.83,3.88,3.88,0,0,1-.26-.31l-.15-.19a19.89,19.89,0,0,1-1.24-1.69v0a31.53,31.53,0,0,1-3.21-6.39,40.15,40.15,0,0,1-2.21-9.51,39.51,39.51,0,0,1,.32-10.76,64.6,64.6,0,0,1,1.32-6.72c.11-.42.22-.82.33-1.21h0l0-.1c.35-1.21.72-2.29,1.1-3.27,1.94-5.25,6.21-14.51,11.38-11.75A43.17,43.17,0,0,1,310.37,64a22.7,22.7,0,0,1,4.82,7.5A42.19,42.19,0,0,1,318,84.21q.72,7.79-1.46,19.89a16.74,16.74,0,0,0,.92,8.07,63.17,63.17,0,0,0,2.6,6.53S309.44,120.72,301.42,114.87Z"/><path class="cls-1" d="M103.47,94.87l-2.55-3.46-.57,1q-2.67,6.15-4.95,10.37t-5.14,8.65a34.18,34.18,0,0,1-5.93,7.11c-.53.64-1,.83-1.55.57q-1.52-.77-2.39-6.53A120.31,120.31,0,0,1,79.3,98.14c.36-3.08.59-5.92.66-8.55a53.42,53.42,0,0,1,.93-8.36c1-5.12,1.87-9.77,2.49-13.93A24.84,24.84,0,0,0,83,56.64a9.74,9.74,0,0,0-4.19-5.38,16.24,16.24,0,0,0-6.87-2.12,39,39,0,0,0-8.14.1q-4.16.48-7.93,1.15c-2.52.45-4.47.74-5.87.87H48.91l-.8.19q-4.78.57-14.8,15.18c.35-4.1.54-7.62.59-10.57a24.29,24.29,0,0,0-.79-7.3,9,9,0,0,0-4.4-5.38,23.56,23.56,0,0,0-8.2-3,58.12,58.12,0,0,0-9.21-1,56,56,0,0,0-7.76.29c-2.22.25-3.4.38-3.54.38l.62,1.35a3,3,0,0,1,2.22,1Q6.89,45.87,6.57,62q-.15,3.84-.34,7.49Q6.14,72.78,6,76.14c-.11,2.24-.21,4.2-.28,5.86l-.21,2.88q-.6,8.07-1,15.66t-.15,13.84a48.46,48.46,0,0,0,1.45,10.56q1.19,4.34,4,5.86a18.29,18.29,0,0,0,7.14,1.93,75.51,75.51,0,0,0,8.46.28,52.68,52.68,0,0,0,7.14-.57c2-.32,3.11-.48,3.4-.48l.8-.2-.6-.57a40.67,40.67,0,0,1-4.92-13.55A86,86,0,0,1,30,98.72a26.88,26.88,0,0,1,1.16-2.6c.7-1.47,1.53-3.14,2.48-5s2-3.75,3.24-5.67a25.94,25.94,0,0,1,3.83-4.81q1.2-1.73,2.82-3.84t3.34-3.94a21,21,0,0,1,3.4-3,4.16,4.16,0,0,1,2.83-1,2.56,2.56,0,0,1,1.31.77A15.12,15.12,0,0,1,56,74.12a29.21,29.21,0,0,1,.16,8.29,138.61,138.61,0,0,0-2.09,13.83v.1a8.51,8.51,0,0,0,0,1.32,15.72,15.72,0,0,1,0,2q.09,6.72.06,10.95.06,5.19.22,8.26a17.94,17.94,0,0,0,.86,5,9,9,0,0,0,2.08,3.36,30.15,30.15,0,0,0,4.12,3.36,20.05,20.05,0,0,0,7.9,2.69c3.31.52,6.14.9,8.52,1.16a9.43,9.43,0,0,0,1.83.38,2.85,2.85,0,0,0,1.23-.19q2.41-.59,5.83-5.29a100.53,100.53,0,0,0,6.77-10.76q3.34-6,6.1-11.91A70.06,70.06,0,0,0,103.1,98C103.74,96.28,103.87,95.26,103.47,94.87Z"/><path class="cls-1" d="M95,60.33s-1,22.68-1.39,29,20.68-9.69,20.68-9.69V60.33Z"/><path class="cls-1" d="M170.7,25.47a20.23,20.23,0,0,1,10.58-7.09c6.77-1.72,8.19-.74,8.69,2.79s10.23-.72,10.23-.72L197.05,8.82,181.59,7.38,163.51,18.66Z"/><path class="cls-1" d="M352,21.48s-.22,13.72-.69,20.68S365,37.43,365,37.43l6.62-19.53Z"/><text class="cls-2" transform="translate(1.25 168.18) scale(1 0.9)">DE<tspan class="cls-3" x="40.57" y="0">S</tspan><tspan x="59.03" y="0">IG</tspan><tspan class="cls-4" x="96.47" y="0">N</tspan><tspan x="118.36" y="0" xml:space="preserve">ER   </tspan><tspan class="cls-5" x="194.88" y="0">C</tspan><tspan class="cls-6" x="216.68" y="0" xml:space="preserve">ODER   A</tspan><tspan class="cls-7" x="360.34" y="0">R</tspan><tspan class="cls-6" x="380.64" y="0">T</tspan><tspan class="cls-8" x="397.25" y="0">I</tspan><tspan x="410.08" y="0">ST</tspan></text></g></g></svg>