<?xml version="1.0" encoding="utf-8"?>
<!-- Generator: Adobe Illustrator 25.0.1, SVG Export Plug-In . SVG Version: 6.00 Build 0)  -->
<svg version="1.1" id="Layer_1" xmlns="http://www.w3.org/2000/svg" xmlns:xlink="http://www.w3.org/1999/xlink" x="0px" y="0px"
	 viewBox="0 0 448.1 168.4" style="enable-background:new 0 0 448.1 168.4;" xml:space="preserve">
<style type="text/css">
	.st0{fill:#FFFFFF;}
</style>
<g id="Layer_2_1_">
	<g id="Layer_3">
		<path class="st0" d="M151.6,83.7c0.4,0.3,0.8,0.7,1.1,1.1c0.3,0.4,0.6,0.9,0.8,1.4c0.1,0.4-0.4,1.8-1.4,4.1s-2.5,5.2-4.2,8.6
			s-3.7,7-5.9,10.9s-4.4,7.5-6.4,10.9s-4,6.3-5.7,8.6c-1.7,2.4-3.1,3.7-4,3.9c-0.1,0-0.2,0-0.2,0.1s0,0.1-0.2,0.1l-0.8,0.2
			c0,0.1,0,0.2-0.2,0.2h-0.7c-0.4,0.1-0.8,0.2-1.2,0.2c-0.4,0-0.8,0.1-1.2,0.2c-1.4,0.1-2.9,0.3-4.6,0.4s-3.5,0.2-5.5,0.2
			c-2.4,0-4.8-0.2-7.1-0.5c-2-0.2-4-0.9-5.8-1.8c-1.9-1-3.3-3-4.2-6c-1-3.5-1.5-7.1-1.6-10.8c-0.2-4.7-0.1-9.4,0.2-14.1
			c0.3-5.2,0.6-10.5,1-15.8l0.3-3c0.2-3.4,1.1-6.8,2.7-9.8c1.6-3,3.8-5.6,6.4-7.7c0.2-0.1,0.4-0.2,0.3-0.3s0-0.2,0.1-0.3
			s0-0.2,0.2-0.2c-0.8-0.5-1.8-0.7-2.7-0.8c-1.6-0.2-3.3-0.4-5.2-0.6H95v-0.8c0-11.3-1.2-18.1-3.8-20.4c-0.7-0.6-1.6-1-2.5-1.2
			l-0.4-1.3c0.1,0,1.3-0.1,3.6-0.3c5.8-0.5,11.6-0.2,17.4,0.7c3,0.4,5.9,1.5,8.5,3.1c2.1,1.2,3.7,3.1,4.4,5.4
			c0.9,3,1.1,6.9,0.7,11.7s-1,10.2-1.7,16c-0.5,3.5-1,7-1.4,10.7c-0.4,3.7-0.7,7.3-0.9,11c-0.2,4.8,0,9.7,0.6,14.5
			c0.5,3.9,1.4,6.1,2.5,6.6c0.3,0.1,0.7,0.1,1,0c0.8-0.4,1.6-1,2.2-1.7c1.3-1.4,2.4-2.9,3.5-4.4c1.5-2,3.1-4.3,4.8-6.8
			s3.6-5.1,5.4-7.8s3.5-5.2,5.1-7.4s2.8-4.1,3.8-5.6c0.6-0.7,1.1-1.5,1.4-2.4l0.3-0.4l0.8,0.4L151.6,83.7z M88.2,3.2
			c-0.6-0.8-1.4-1.4-2.4-1.5l-4.7-1.3l4.5-0.2L88.8,0c2.1-0.1,4.4-0.1,7,0c2.6,0.1,5.2,0.2,7.7,0.4c2,0.1,3.9,0.4,5.8,1.1
			c6.8,2.3,10.5,6.3,11.1,11.9c0.2,1.5,0.4,3.2,0.6,4.9s0.4,3.3,0.4,4.7s0.2,3.1,0.4,5.2l0.2,0.8l-1.1-0.2
			c-4.7-1.4-8.6-2.4-11.7-3.1c-3.1-0.6-6.2-1.1-9.4-1.2c-2.5-0.3-5.1,0-7.5,0.9L91,26.1l0.2-1.5c0.3-3.5,0.4-6.3,0.3-8.6
			c0-2.4-0.3-4.7-0.8-7C90.3,6.8,89.5,4.9,88.2,3.2z"/>
		<path class="st0" d="M210.6,16.7c0.8,1,1.4,2.1,1.8,3.3c0.6,1.6,1.1,3.3,1.3,5.1c0.3,1.7,0.3,3.5,0.1,5.3c-0.1,1.5-0.9,3-2.1,3.9
			c-1.2,1-3,1.5-5.6,1.6c-2.6,0.1-5.2-0.1-7.8-0.4c-3.3-0.4-6.6-1-9.8-1.8c0.6,0,1-0.4,1.4-1.4c0.4-1.2,0.6-2.4,0.6-3.6
			c0.1-1.6,0-3.2-0.2-4.8c-0.2-1.7-0.5-3.4-0.9-5.1c-0.1-0.4-0.3-0.8-0.5-1.2c1.1-0.7,2.1-1.4,3-2.1s1.7-1.3,2.4-1.9
			s1.6-1.2,2.3-1.8L184,16.6c-3.1,1.3-5.8,2.5-8.2,3.7c-2.4,1.2-3.3,2-2.6,2.4c-1.3,1.5-2.7,3-4,4.5s-2.6,3.1-3.9,4.8
			c-3.2,4-5.5,8.6-7,13.5c-1.5,5.1-2.5,10.4-3,15.7c-0.5,5.6-0.5,11.2,0.1,16.8c0.5,5.7,1.5,11.4,2.9,17c1.1,5.5,3,10.8,5.6,15.7
			c2.3,4.3,4.9,7.2,7.6,8.7c1.5,1,3.3,1.5,5.1,1.7c1.3,0,2.6-0.4,3.7-1.1c1.1-0.8,2.1-1.9,2.9-3.1c0.9-1.3,1.8-2.7,2.7-4.2
			c0.8-1.1,1.2-2.5,1.2-3.9c-0.1-0.9-0.4-1.8-0.9-2.6c-0.7-0.8-1.5-1.5-2.4-2c5.4-0.5,9.6-0.5,12.7,0.2c2.5,0.5,4.8,1.4,6.9,2.7
			c1.7,1.1,3,2.8,3.7,4.8c-0.9,4.7-2.9,9.1-5.7,13c-2.7,3.5-6.1,6.3-10.1,8.1c-4.4,2.3-10.3,2.9-17.8,2c-4.8-0.5-9.4-2.1-13.6-4.6
			c-4.1-2.5-7.8-5.5-11-9c-3.3-3.5-6.1-7.4-8.5-11.6c-2.3-4-4.3-8.2-5.9-12.5c-1.5-3.7-2.6-7.5-3.4-11.4c-0.6-2.8-0.9-5.6-0.8-8.5
			c0.5-10.4,1.7-20.7,3.7-30.9c1.5-8.2,4.1-16.2,7.7-23.8c2.8-6.1,6.9-11.5,12.1-15.7c4.9-3.8,10.8-6,17-6.4
			c5.8-0.4,11.6,0.1,17.1,1.8c4.4,1.3,8.6,3.2,12.6,5.6C204.1,10.4,207.6,13.3,210.6,16.7z"/>
		<path class="st0" d="M438,104.1c4.2,0.8,7,2.5,8.3,5.2c1.3,2.6,1.9,5.5,1.8,8.5c-0.2,3.9-1.1,7.7-2.6,11.3
			c-2.3-2.4-5.3-4.1-8.6-4.8c-3.6-0.8-7.4-1-11-0.7c-4.1,0.3-8.3,1-12.3,2c-4.3,1-8.5,2.1-12.6,3.2c-4.1,1.1-8,2.2-11.8,3.2
			c-3.1,0.9-6.3,1.5-9.6,1.7c-3.6,0.6-7.2,1-10.8,1.1c-3,0.1-6.1,0.1-9.1-0.2c-2.6-0.1-5.2-0.9-7.5-2.1c-1.7-1-3-3.3-3.8-6.8
			c-0.9-4.4-1.3-8.8-1.3-13.3c-0.1-5.3,0.1-11.3,0.5-17.9c0.4-6.6,0.9-13.4,1.4-20.5c0.5-7,1.1-14.1,1.6-21.1s1-13.6,1.3-19.8
			c1.7-1,3.4-2.1,5-3.3c1.8-1.3,3.3-2.5,4.7-3.6l4.8-4L352,24.8c0-5.7-0.5-11.5-1.6-17.1c-0.9-4.4-2.7-6.7-5.3-6.8
			c5.3-0.6,10.7-0.8,16-0.4c4,0.2,8,1,11.8,2.4c3.8,1.3,6.1,3.5,7,6.6c0.7,3.2,1,6.5,0.6,9.7c-0.2,4.3-0.6,9.3-1.2,15.1
			s-1.3,12-2.1,18.7s-1.6,13.6-2.2,20.6s-1.1,13.8-1.4,20.6c-0.4,6.2-0.2,12.5,0.3,18.7c5-0.5,10.6-1.4,16.6-2.6s12.1-2.4,18-3.6
			c5.9-1.2,11.4-2.1,16.6-2.7C429.4,103.5,433.8,103.5,438,104.1z"/>
		<path class="st0" d="M282.1,86.9c-2.2,1.8-4.7,3.9-7.5,6.4l-1.6,1.3c0.1-5.5-0.5-11.1-1.9-16.4c-1.3-5.2-2.8-10.4-4.6-15.5
			c-0.9-2-2.1-3.7-3.6-5.3c-1.7-1.7-3.5-3.2-5.5-4.5c-3.9-2.6-8-4.8-12.4-6.3c-3.5-1.2-7-2.2-10.6-3c-14.7-3.6-24.8,9-25.7,10.1
			c-0.3,0.4-0.5,0.8-0.8,1.3c-0.6,1.2-1.2,2.5-1.7,3.8c-0.6,1.4-1.1,2.9-1.5,4.4c-1.6,3.6-2.9,7.4-3.8,11.2c-1,4-1.7,8.1-2,12.2
			c-0.3,4-0.3,8.1,0.1,12.1c0.3,3.7,1.2,7.3,2.5,10.8c1.1,2.6,2.1,4.9,3.1,7.1c1,2.1,2.1,4.1,3.4,6c2.3,4.1,5.7,7.5,9.7,10
			c3.9,2.5,8.4,3.9,13,4h0.4c9.2,0.2,18.1-3.2,24.9-9.4c1.5-1.3,2.7-2.9,3.6-4.6c1.5-1.8,3.4-4,5.9-6.7c2.5-2.7,5.2-5.5,8.2-8.5
			c3.5-3.6,6.6-6.8,9.3-9.7L282.1,86.9z M227,114.9c-1.2-0.8-2.2-1.7-3.1-2.8l-0.3-0.3l-0.1-0.2c-0.4-0.5-0.9-1.1-1.2-1.7l0,0
			c-1.3-2-2.4-4.1-3.2-6.4c-1.1-3.1-1.9-6.3-2.2-9.5c-0.4-3.6-0.3-7.2,0.3-10.8c0.3-2.3,0.8-4.5,1.3-6.7c0.1-0.4,0.2-0.8,0.3-1.2
			l0,0v-0.1c0.3-1.1,0.7-2.2,1.1-3.3c1.9-5.2,6.2-14.5,11.4-11.8c1.6,1.2,3.2,2.5,4.6,3.9c2.1,2.2,3.7,4.7,4.8,7.5
			c1.6,4.1,2.5,8.3,2.8,12.7c0.5,5.2,0,11.8-1.4,19.9c-0.4,2.7-0.1,5.5,0.9,8.1c0.8,2.2,1.6,4.4,2.6,6.5
			C245.6,118.7,235,120.7,227,114.9z"/>
		<path class="st0" d="M356.5,86.9c-2.2,1.8-4.7,3.9-7.5,6.4l-1.5,1.3c0.1-5.5-0.5-11.1-1.9-16.4c-1.3-5.2-2.8-10.4-4.6-15.5
			c-0.9-2-2.1-3.7-3.6-5.3c-1.7-1.7-3.5-3.2-5.5-4.5c-3.9-2.6-8-4.8-12.4-6.3c-3.5-1.2-7-2.2-10.6-3c-14.7-3.6-24.8,9-25.7,10.1
			c-0.3,0.4-0.5,0.8-0.8,1.2c-0.6,1.2-1.2,2.5-1.7,3.8c-0.6,1.4-1.1,2.9-1.5,4.4c-1.6,3.6-2.9,7.4-3.8,11.2c-1,4-1.7,8.1-2,12.2
			c-0.3,4-0.3,8.1,0.1,12.1c0.3,3.7,1.2,7.3,2.5,10.8c1.1,2.6,2.1,4.9,3.1,7.1c1,2.1,2.1,4.1,3.4,6c2.3,4.1,5.7,7.5,9.7,10
			c3.9,2.5,8.4,3.9,13,4h0.4c9.2,0.2,18.1-3.2,24.9-9.4c1.5-1.3,2.7-2.8,3.6-4.6c1.5-1.8,3.4-4,5.9-6.7c2.5-2.7,5.2-5.5,8.2-8.5
			c3.5-3.6,6.6-6.8,9.3-9.7L356.5,86.9z M301.4,114.9c-1.2-0.8-2.2-1.7-3.1-2.8c-0.1-0.1-0.2-0.2-0.3-0.3l-0.1-0.2
			c-0.4-0.5-0.9-1.1-1.2-1.7l0,0c-1.3-2-2.4-4.1-3.2-6.4c-1.1-3.1-1.9-6.3-2.2-9.5c-0.4-3.6-0.3-7.2,0.3-10.8
			c0.3-2.3,0.8-4.5,1.3-6.7c0.1-0.4,0.2-0.8,0.3-1.2l0,0v-0.1c0.4-1.2,0.7-2.3,1.1-3.3c1.9-5.2,6.2-14.5,11.4-11.8
			c1.6,1.2,3.2,2.5,4.6,3.9c2.1,2.2,3.7,4.7,4.8,7.5c1.6,4.1,2.5,8.4,2.8,12.7c0.5,5.2,0,11.8-1.5,19.9c-0.4,2.7,0,5.5,0.9,8.1
			c0.7,2.2,1.6,4.4,2.6,6.5C320.1,118.7,309.4,120.7,301.4,114.9z"/>
		<path class="st0" d="M103.5,94.9l-2.6-3.5l-0.6,1c-1.8,4.1-3.4,7.6-4.9,10.4c-1.5,2.8-3.2,5.7-5.1,8.7c-1.6,2.6-3.6,5-5.9,7.1
			c-0.5,0.6-1,0.8-1.6,0.6c-1-0.5-1.8-2.7-2.4-6.5c-0.7-4.8-1-9.6-1.1-14.4c0.4-3.1,0.6-5.9,0.7-8.6c0.1-2.8,0.4-5.6,0.9-8.4
			c1-5.1,1.9-9.8,2.5-13.9c0.6-3.5,0.5-7.2-0.4-10.7c-0.7-2.2-2.2-4.2-4.2-5.4c-2.1-1.2-4.5-1.9-6.9-2.1c-2.7-0.3-5.4-0.2-8.1,0.1
			c-2.8,0.3-5.4,0.7-7.9,1.2c-2.5,0.5-4.5,0.7-5.9,0.9h-1.1l-0.8,0.2c-3.2,0.4-8.1,5.4-14.8,15.2c0.3-4.1,0.5-7.6,0.6-10.6
			c0.1-2.5-0.2-4.9-0.8-7.3c-0.7-2.3-2.3-4.2-4.4-5.4c-2.5-1.5-5.3-2.5-8.2-3c-3-0.6-6.1-0.9-9.2-1c-2.6-0.1-5.2,0-7.8,0.3
			C1.3,39.9,0.1,40,0,40l0.6,1.3c0.8,0,1.7,0.4,2.2,1c2.7,2.3,3.9,8.8,3.7,19.6c-0.1,2.6-0.2,5.1-0.3,7.5c-0.1,2.2-0.1,4.4-0.2,6.7
			c-0.1,2.2-0.2,4.2-0.3,5.9l-0.2,2.9c-0.4,5.4-0.7,10.6-1,15.7c-0.3,5.1-0.3,9.7-0.2,13.8c0.1,3.6,0.6,7.1,1.4,10.6
			c0.8,2.9,2.1,4.8,4,5.9c2.2,1.1,4.7,1.8,7.1,1.9c2.8,0.3,5.6,0.3,8.5,0.3c2.4,0,4.8-0.2,7.1-0.6c2-0.3,3.1-0.5,3.4-0.5l0.8-0.2
			l-0.6-0.6c-2.4-4.2-4.1-8.8-4.9-13.6c-1.1-6.2-1.5-12.6-1.2-18.9c0.3-0.9,0.7-1.8,1.2-2.6c0.7-1.5,1.5-3.1,2.5-5s2-3.8,3.2-5.7
			c1.1-1.7,2.4-3.4,3.8-4.8c0.8-1.2,1.7-2.4,2.8-3.8s2.2-2.7,3.3-3.9c1-1.1,2.2-2.1,3.4-3c0.8-0.7,1.8-1,2.8-1
			c0.5,0.1,1,0.4,1.3,0.8c0.8,1.4,1.3,2.9,1.6,4.5c0.4,2.7,0.5,5.5,0.2,8.3c-0.9,4.6-1.6,9.2-2.1,13.8v0.1c0,0.4,0,0.9,0,1.3
			c0,0.7,0,1.3,0,2c0.1,4.5,0.1,8.1,0.1,10.9c0,3.5,0.1,6.2,0.2,8.3c0,1.7,0.3,3.4,0.9,5c0.4,1.3,1.1,2.4,2.1,3.4
			c1.3,1.2,2.7,2.4,4.1,3.4c2.4,1.4,5.1,2.4,7.9,2.7c3.3,0.5,6.1,0.9,8.5,1.2c0.6,0.2,1.2,0.3,1.8,0.4c0.4,0,0.8,0,1.2-0.2
			c1.6-0.4,3.6-2.2,5.8-5.3c2.5-3.4,4.7-7,6.8-10.8c2.2-4,4.3-8,6.1-11.9c1.4-2.8,2.5-5.7,3.5-8.7C103.7,96.3,103.9,95.3,103.5,94.9
			z"/>
		<path class="st0" d="M95,60.3c0,0-1,22.7-1.4,29s20.7-9.7,20.7-9.7V60.3H95z"/>
		<path class="st0" d="M170.7,25.5c2.7-3.4,6.4-5.9,10.6-7.1c6.8-1.7,8.2-0.7,8.7,2.8s10.2-0.7,10.2-0.7l-3.1-11.6l-15.5-1.4
			l-18.1,11.3L170.7,25.5z"/>
		<path class="st0" d="M352,21.5c0,0-0.2,13.7-0.7,20.7s13.7-4.7,13.7-4.7l6.6-19.5L352,21.5z"/>
	</g>
</g>
<g>
	<path class="st0" d="M9.6,155c1.1,0.5,1.9,1.3,2.5,2.3s0.9,2.2,0.9,3.5s-0.3,2.5-0.9,3.5s-1.4,1.8-2.5,2.3
		c-1.1,0.5-2.4,0.8-3.9,0.8H1.5v-13.2h4.2C7.2,154.2,8.5,154.5,9.6,155z M9.8,164.6c0.9-0.9,1.4-2.2,1.4-3.8c0-1.6-0.5-2.9-1.4-3.9
		c-0.9-0.9-2.3-1.4-4-1.4H3.3V166h2.5C7.5,166,8.9,165.6,9.8,164.6z"/>
	<path class="st0" d="M20.6,155.6v4.4h5v1.4h-5v4.6h5.6v1.4h-7.3v-13.3h7.3v1.4H20.6z"/>
	<path class="st0" d="M34.3,167.1c-0.7-0.3-1.3-0.7-1.7-1.3c-0.4-0.6-0.6-1.2-0.6-1.9h1.9c0.1,0.6,0.3,1.1,0.8,1.6
		c0.5,0.4,1.1,0.6,2,0.6c0.8,0,1.5-0.2,2-0.6c0.5-0.4,0.7-0.9,0.7-1.6c0-0.5-0.1-0.9-0.4-1.2c-0.3-0.3-0.6-0.6-1.1-0.7
		c-0.4-0.2-1-0.3-1.7-0.5c-0.9-0.2-1.6-0.5-2.2-0.7c-0.5-0.2-1-0.6-1.4-1.1s-0.6-1.1-0.6-2c0-0.7,0.2-1.4,0.6-1.9s0.9-1,1.6-1.3
		c0.7-0.3,1.5-0.5,2.4-0.5c1.3,0,2.3,0.3,3.1,0.9c0.8,0.6,1.3,1.4,1.4,2.5h-2c-0.1-0.5-0.3-1-0.8-1.3c-0.5-0.4-1.1-0.6-1.9-0.6
		c-0.7,0-1.4,0.2-1.8,0.6c-0.5,0.4-0.7,0.9-0.7,1.6c0,0.5,0.1,0.9,0.4,1.2c0.3,0.3,0.6,0.5,1,0.7s1,0.3,1.7,0.5
		c0.9,0.2,1.6,0.5,2.2,0.7s1,0.6,1.4,1.1c0.4,0.5,0.6,1.1,0.6,2c0,0.6-0.2,1.3-0.5,1.8c-0.4,0.6-0.9,1-1.6,1.4
		c-0.7,0.4-1.5,0.5-2.4,0.5C35.9,167.6,35,167.4,34.3,167.1z"/>
	<path class="st0" d="M49.2,154.2v13.2h-1.8v-13.2H49.2z"/>
	<path class="st0" d="M66.1,158c-0.4-0.8-0.9-1.4-1.6-1.8c-0.7-0.4-1.6-0.6-2.5-0.6c-1,0-1.8,0.2-2.6,0.6c-0.8,0.4-1.4,1-1.8,1.8
		c-0.4,0.8-0.7,1.7-0.7,2.7s0.2,2,0.7,2.7c0.4,0.8,1,1.4,1.8,1.8c0.8,0.4,1.6,0.6,2.6,0.6c1.3,0,2.4-0.4,3.3-1.2
		c0.9-0.8,1.4-1.8,1.5-3.1h-5.4v-1.4h7.3v1.3c-0.1,1.1-0.5,2.1-1.1,3s-1.4,1.6-2.4,2.1c-1,0.5-2.1,0.8-3.3,0.8
		c-1.3,0-2.4-0.3-3.5-0.9c-1-0.6-1.9-1.4-2.5-2.4c-0.6-1-0.9-2.2-0.9-3.5s0.3-2.5,0.9-3.5c0.6-1,1.4-1.8,2.5-2.4
		c1-0.6,2.2-0.9,3.5-0.9c1.4,0,2.7,0.3,3.8,1c1.1,0.7,1.9,1.7,2.4,2.9H66.1z"/>
	<path class="st0" d="M85.2,167.4h-1.8l-7.2-10.5v10.5h-1.8v-13.3h1.8l7.2,10.5v-10.5h1.8V167.4z"/>
	<path class="st0" d="M93.6,155.6v4.4h5v1.4h-5v4.6h5.6v1.4h-7.3v-13.3h7.3v1.4H93.6z"/>
	<path class="st0" d="M112.5,167.4l-3.2-5.4h-2.2v5.4h-1.8v-13.2h4.4c1,0,1.9,0.2,2.6,0.5c0.7,0.3,1.2,0.8,1.6,1.4s0.5,1.2,0.5,2
		c0,0.9-0.3,1.7-0.8,2.4c-0.5,0.7-1.4,1.2-2.4,1.4l3.4,5.5H112.5z M107.1,160.6h2.6c1,0,1.7-0.2,2.2-0.7c0.5-0.5,0.7-1.1,0.7-1.9
		c0-0.8-0.2-1.4-0.7-1.8c-0.5-0.4-1.2-0.6-2.2-0.6h-2.6V160.6z"/>
	<path class="st0" d="M155,160.8c-0.8,0.7-2,1.1-3.6,1.1h-2.6v5.5H147v-13.2h4.4c1.5,0,2.7,0.4,3.5,1.1s1.2,1.7,1.2,2.8
		C156.1,159.2,155.8,160.1,155,160.8z M153.6,159.8c0.5-0.4,0.7-1,0.7-1.8c0-1.6-1-2.5-2.9-2.5h-2.6v4.9h2.6
		C152.4,160.5,153.2,160.3,153.6,159.8z"/>
	<path class="st0" d="M172.4,154.2v13.2h-1.8v-6h-6.9v6h-1.8v-13.2h1.8v5.8h6.9v-5.8H172.4z"/>
	<path class="st0" d="M181.7,166.7c-1-0.6-1.9-1.4-2.5-2.4c-0.6-1-0.9-2.2-0.9-3.5s0.3-2.5,0.9-3.5c0.6-1,1.4-1.8,2.5-2.4
		c1-0.6,2.2-0.9,3.5-0.9c1.3,0,2.4,0.3,3.5,0.9s1.9,1.4,2.5,2.4s0.9,2.2,0.9,3.5s-0.3,2.5-0.9,3.5c-0.6,1-1.4,1.8-2.5,2.4
		s-2.2,0.9-3.5,0.9C183.9,167.6,182.7,167.3,181.7,166.7z M187.7,165.4c0.8-0.4,1.4-1,1.8-1.8c0.4-0.8,0.7-1.7,0.7-2.8
		c0-1.1-0.2-2-0.7-2.8c-0.4-0.8-1-1.4-1.8-1.8c-0.8-0.4-1.6-0.6-2.6-0.6s-1.8,0.2-2.6,0.6c-0.8,0.4-1.4,1-1.8,1.8
		c-0.4,0.8-0.7,1.7-0.7,2.8c0,1.1,0.2,2,0.7,2.8c0.4,0.8,1,1.4,1.8,1.8s1.6,0.6,2.6,0.6C186.1,166.1,186.9,165.8,187.7,165.4z"/>
	<path class="st0" d="M206.2,154.2v1.4h-3.7v11.8h-1.8v-11.8H197v-1.4H206.2z"/>
	<path class="st0" d="M214.7,166.7c-1-0.6-1.9-1.4-2.5-2.4c-0.6-1-0.9-2.2-0.9-3.5s0.3-2.5,0.9-3.5c0.6-1,1.4-1.8,2.5-2.4
		c1-0.6,2.2-0.9,3.5-0.9c1.3,0,2.4,0.3,3.5,0.9c1,0.6,1.9,1.4,2.5,2.4c0.6,1,0.9,2.2,0.9,3.5s-0.3,2.5-0.9,3.5
		c-0.6,1-1.4,1.8-2.5,2.4c-1,0.6-2.2,0.9-3.5,0.9C216.9,167.6,215.7,167.3,214.7,166.7z M220.7,165.4c0.8-0.4,1.4-1,1.8-1.8
		c0.4-0.8,0.7-1.7,0.7-2.8c0-1.1-0.2-2-0.7-2.8c-0.4-0.8-1-1.4-1.8-1.8c-0.8-0.4-1.6-0.6-2.6-0.6c-1,0-1.8,0.2-2.6,0.6
		s-1.4,1-1.8,1.8c-0.4,0.8-0.7,1.7-0.7,2.8c0,1.1,0.2,2,0.7,2.8c0.4,0.8,1,1.4,1.8,1.8c0.8,0.4,1.6,0.6,2.6,0.6
		C219.1,166.1,220,165.8,220.7,165.4z"/>
	<path class="st0" d="M241.2,158c-0.4-0.8-0.9-1.4-1.6-1.8c-0.7-0.4-1.6-0.6-2.5-0.6c-1,0-1.8,0.2-2.6,0.6c-0.8,0.4-1.4,1-1.8,1.8
		c-0.4,0.8-0.7,1.7-0.7,2.7s0.2,2,0.7,2.7c0.4,0.8,1,1.4,1.8,1.8c0.8,0.4,1.6,0.6,2.6,0.6c1.3,0,2.4-0.4,3.3-1.2
		c0.9-0.8,1.4-1.8,1.5-3.1h-5.4v-1.4h7.3v1.3c-0.1,1.1-0.5,2.1-1.1,3c-0.6,0.9-1.4,1.6-2.4,2.1c-1,0.5-2.1,0.8-3.3,0.8
		c-1.3,0-2.4-0.3-3.5-0.9c-1-0.6-1.9-1.4-2.5-2.4c-0.6-1-0.9-2.2-0.9-3.5s0.3-2.5,0.9-3.5c0.6-1,1.4-1.8,2.5-2.4
		c1-0.6,2.2-0.9,3.5-0.9c1.4,0,2.7,0.3,3.8,1c1.1,0.7,1.9,1.7,2.4,2.9H241.2z"/>
	<path class="st0" d="M256.8,167.4l-3.2-5.4h-2.2v5.4h-1.8v-13.2h4.4c1,0,1.9,0.2,2.6,0.5c0.7,0.3,1.2,0.8,1.6,1.4
		c0.4,0.6,0.5,1.2,0.5,2c0,0.9-0.3,1.7-0.8,2.4c-0.5,0.7-1.4,1.2-2.4,1.4l3.4,5.5H256.8z M251.4,160.6h2.6c1,0,1.7-0.2,2.2-0.7
		c0.5-0.5,0.7-1.1,0.7-1.9c0-0.8-0.2-1.4-0.7-1.8c-0.5-0.4-1.2-0.6-2.2-0.6h-2.6V160.6z"/>
	<path class="st0" d="M273.1,164.5h-5.9l-1.1,2.9h-1.9l4.9-13.2h2.1l4.9,13.2h-1.9L273.1,164.5z M272.6,163.1l-2.5-6.7l-2.5,6.7
		H272.6z"/>
	<path class="st0" d="M289.7,160.8c-0.8,0.7-2,1.1-3.6,1.1h-2.6v5.5h-1.8v-13.2h4.4c1.5,0,2.7,0.4,3.5,1.1s1.2,1.7,1.2,2.8
		C290.9,159.2,290.5,160.1,289.7,160.8z M288.3,159.8c0.5-0.4,0.7-1,0.7-1.8c0-1.6-1-2.5-2.9-2.5h-2.6v4.9h2.6
		C287.1,160.5,287.9,160.3,288.3,159.8z"/>
	<path class="st0" d="M307.1,154.2v13.2h-1.8v-6h-6.9v6h-1.8v-13.2h1.8v5.8h6.9v-5.8H307.1z"/>
	<path class="st0" d="M315.4,155.6v4.4h5v1.4h-5v4.6h5.6v1.4h-7.3v-13.3h7.3v1.4H315.4z"/>
	<path class="st0" d="M334.4,167.4l-3.2-5.4H329v5.4h-1.8v-13.2h4.4c1,0,1.9,0.2,2.6,0.5c0.7,0.3,1.2,0.8,1.6,1.4
		c0.4,0.6,0.5,1.2,0.5,2c0,0.9-0.3,1.7-0.8,2.4c-0.5,0.7-1.4,1.2-2.4,1.4l3.4,5.5H334.4z M329,160.6h2.6c1,0,1.7-0.2,2.2-0.7
		c0.5-0.5,0.7-1.1,0.7-1.9c0-0.8-0.2-1.4-0.7-1.8c-0.5-0.4-1.2-0.6-2.2-0.6H329V160.6z"/>
	<path class="st0" d="M377,164.5H371l-1.1,2.9H368l4.9-13.2h2.1l4.9,13.2H378L377,164.5z M376.4,163.1l-2.5-6.7l-2.5,6.7H376.4z"/>
	<path class="st0" d="M392.8,167.4l-3.2-5.4h-2.2v5.4h-1.8v-13.2h4.4c1,0,1.9,0.2,2.6,0.5c0.7,0.3,1.2,0.8,1.6,1.4
		c0.4,0.6,0.5,1.2,0.5,2c0,0.9-0.3,1.7-0.8,2.4c-0.5,0.7-1.4,1.2-2.4,1.4l3.4,5.5H392.8z M387.4,160.6h2.6c1,0,1.7-0.2,2.2-0.7
		c0.5-0.5,0.7-1.1,0.7-1.9c0-0.8-0.2-1.4-0.7-1.8c-0.5-0.4-1.2-0.6-2.2-0.6h-2.6V160.6z"/>
	<path class="st0" d="M409.4,154.2v1.4h-3.7v11.8h-1.8v-11.8h-3.7v-1.4H409.4z"/>
	<path class="st0" d="M416.9,154.2v13.2h-1.8v-13.2H416.9z"/>
	<path class="st0" d="M425.4,167.1c-0.7-0.3-1.3-0.7-1.7-1.3c-0.4-0.6-0.6-1.2-0.6-1.9h1.9c0.1,0.6,0.3,1.1,0.8,1.6
		c0.5,0.4,1.1,0.6,2,0.6c0.8,0,1.5-0.2,2-0.6c0.5-0.4,0.7-0.9,0.7-1.6c0-0.5-0.1-0.9-0.4-1.2c-0.3-0.3-0.6-0.6-1.1-0.7
		c-0.4-0.2-1-0.3-1.7-0.5c-0.9-0.2-1.6-0.5-2.2-0.7c-0.5-0.2-1-0.6-1.4-1.1c-0.4-0.5-0.6-1.1-0.6-2c0-0.7,0.2-1.4,0.6-1.9
		c0.4-0.6,0.9-1,1.6-1.3c0.7-0.3,1.5-0.5,2.4-0.5c1.3,0,2.3,0.3,3.1,0.9c0.8,0.6,1.3,1.4,1.4,2.5h-2c-0.1-0.5-0.3-1-0.8-1.3
		c-0.5-0.4-1.1-0.6-1.9-0.6c-0.7,0-1.4,0.2-1.8,0.6c-0.5,0.4-0.7,0.9-0.7,1.6c0,0.5,0.1,0.9,0.4,1.2s0.6,0.5,1,0.7s1,0.3,1.7,0.5
		c0.9,0.2,1.6,0.5,2.2,0.7s1,0.6,1.4,1.1c0.4,0.5,0.6,1.1,0.6,2c0,0.6-0.2,1.3-0.5,1.8s-0.9,1-1.6,1.4c-0.7,0.4-1.5,0.5-2.4,0.5
		C426.9,167.6,426.1,167.4,425.4,167.1z"/>
	<path class="st0" d="M446.9,154.2v1.4h-3.7v11.8h-1.8v-11.8h-3.7v-1.4H446.9z"/>
</g>
</svg>
