<svg xmlns="http://www.w3.org/2000/svg" viewBox="0 0 43.16 43.16"><defs><style>.cls-1{fill:#fff;}</style></defs><title>Asset 4</title><g id="Layer_2" data-name="Layer 2"><g id="Layer_3" data-name="Layer 3"><path class="cls-1" d="M18.89,25.63l7-4.05-7-4Z"/><path class="cls-1" d="M21.58,0A21.58,21.58,0,1,0,43.16,21.58,21.58,21.58,0,0,0,21.58,0ZM35.07,21.6a35.34,35.34,0,0,1-.56,6.49,3.37,3.37,0,0,1-2.37,2.38C30,31,21.58,31,21.58,31S13.16,31,11,30.45a3.38,3.38,0,0,1-2.38-2.38,35.85,35.85,0,0,1-.55-6.49,35.88,35.88,0,0,1,.55-6.48A3.45,3.45,0,0,1,11,12.7c2.11-.56,10.55-.56,10.55-.56s8.44,0,10.56.58a3.37,3.37,0,0,1,2.37,2.38A33.66,33.66,0,0,1,35.07,21.6Z"/></g></g></svg>